<?xml version="1.0" encoding="UTF-8"?>
<svg version="1.1" xmlns="http://www.w3.org/2000/svg" width="1068" height="1068">
<path d="M0 0 C352.44 0 704.88 0 1068 0 C1068 352.44 1068 704.88 1068 1068 C715.56 1068 363.12 1068 0 1068 C0 715.56 0 363.12 0 0 Z " fill="#FEFEFE" transform="translate(0,0)"/>
<path d="M0 0 C9.29784621 2.20877482 18.71174938 3.76473537 28.12454224 5.39819336 C32.68969532 6.19049715 37.25346193 6.99065635 41.81733704 7.7902832 C44.13032831 8.19545798 46.44338777 8.60024365 48.7565155 9.00463867 C58.55736485 10.71860597 68.35243433 12.46335534 78.14453125 14.2265625 C78.8999118 14.36247803 79.65529236 14.49839355 80.43356323 14.63842773 C84.38191792 15.34887934 88.33015356 16.05998915 92.27832031 16.77148438 C97.24108784 17.6655532 102.20429461 18.55716788 107.16755676 19.44848633 C111.67589241 20.25815293 116.18412955 21.06836716 120.69235229 21.87866211 C122.87520296 22.27092453 125.05808363 22.66302004 127.24099731 23.05493164 C129.31206736 23.4268267 131.38307813 23.79905197 133.45402527 24.17163086 C135.43351495 24.52758832 137.413177 24.88258873 139.39302063 25.23657227 C143.68805244 26.00773674 147.9768418 26.79491794 152.25439453 27.65820312 C165.06179264 30.23670976 174.61189478 29.84699442 187.33203125 26.8515625 C188.52441406 26.58214844 189.71679688 26.31273437 190.9453125 26.03515625 C197.3968472 24.57031541 197.3968472 24.57031541 203.71582031 22.63232422 C206.58203125 21.7265625 206.58203125 21.7265625 210.58203125 21.7265625 C209.98268509 25.7644798 208.68702725 28.72626869 206.6953125 32.27734375 C206.09340088 33.35669189 205.49148926 34.43604004 204.87133789 35.5480957 C204.21268922 36.7119137 203.55374651 37.87556534 202.89453125 39.0390625 C202.2176604 40.24483537 201.54115154 41.45081152 200.86499023 42.65698242 C195.25293355 52.64194771 189.4980283 62.54343695 183.6875 72.4140625 C181.77669141 75.66492619 179.89683634 78.92761392 178.0703125 82.2265625 C177.70542725 82.88293701 177.34054199 83.53931152 176.96459961 84.21557617 C176.0460083 85.87803279 175.13768001 87.54614974 174.23046875 89.21484375 C172.47013739 91.8970548 171.4519912 93.29158253 168.58203125 94.7265625 C162.9921172 95.11369191 157.67293895 94.45535292 152.14453125 93.6015625 C151.28255127 93.47394531 150.42057129 93.34632813 149.5324707 93.21484375 C147.47149842 92.90953999 145.4109027 92.60168877 143.35058594 92.29199219 C135.32587414 91.0879735 127.29778546 89.90669719 119.26953125 88.7265625 C118.36737885 88.59386963 117.46522644 88.46117676 116.53573608 88.32446289 C103.55965503 86.41904594 90.57828592 84.65059974 77.55615234 83.08740234 C71.79077759 82.38790933 66.03003364 81.65246526 60.26953125 80.9140625 C59.01052002 80.75309082 57.75150879 80.59211914 56.4543457 80.42626953 C48.40243786 79.3882637 40.3618043 78.28027648 32.32421875 77.13671875 C31.35799088 76.99973068 30.391763 76.86274261 29.39625549 76.72160339 C24.59665588 76.04070223 19.79804154 75.35383901 15.00073242 74.65698242 C13.22708118 74.40392096 11.45340084 74.15106333 9.6796875 73.8984375 C8.87880707 73.77988907 8.07792664 73.66134064 7.2527771 73.53919983 C0.03240039 72.52108116 -6.42138507 72.0578196 -13.44921875 74.48046875 C-20.85464123 76.90450753 -28.35679082 78.80496938 -35.91796875 80.6640625 C-37.33476526 81.01510393 -38.75151274 81.36634332 -40.16821289 81.71777344 C-50.45628729 84.26479205 -60.75739996 86.75561447 -71.07617188 89.17529297 C-73.5196156 89.75049063 -75.96110975 90.33346813 -78.40234375 90.91796875 C-79.97004227 91.29170782 -81.53775015 91.66540764 -83.10546875 92.0390625 C-83.81952881 92.21083008 -84.53358887 92.38259766 -85.26928711 92.55957031 C-90.19124111 93.7265625 -90.19124111 93.7265625 -92.41796875 93.7265625 C-92.41796875 94.3865625 -92.41796875 95.0465625 -92.41796875 95.7265625 C-91.84433594 95.75234375 -91.27070313 95.778125 -90.6796875 95.8046875 C-84.62662064 96.20883764 -78.8308006 97.18534073 -72.91796875 98.4765625 C-65.31541701 100.13636552 -57.69778575 101.63948351 -50.04296875 103.0390625 C-40.29110464 104.82614379 -30.54470039 106.63821195 -20.80407715 108.48538208 C-18.50262621 108.92171099 -16.20103646 109.35730114 -13.89941406 109.79272461 C-5.68714093 111.34681037 2.52420493 112.90564199 10.73434448 114.47096252 C16.22474706 115.51709557 21.71578872 116.55984838 27.20703125 117.6015625 C28.31342957 117.81162933 29.41982788 118.02169617 30.55975342 118.23812866 C43.40472682 120.67303067 56.25835696 123.04470742 69.13671875 125.296875 C70.31489166 125.50303436 71.49306458 125.70919373 72.7069397 125.92160034 C78.37023247 126.9103216 84.03490646 127.89020272 89.70166016 128.85888672 C91.73470945 129.21056034 93.76775029 129.5622829 95.80078125 129.9140625 C96.72220917 130.06884064 97.64363708 130.22361877 98.59298706 130.38308716 C102.81614691 131.11771692 106.66879983 131.88932665 110.58203125 133.7265625 C109.09789403 136.69483694 107.08262305 136.85470625 104.00048828 137.99462891 C102.1945948 138.66850899 102.1945948 138.66850899 100.35221863 139.35600281 C99.01481093 139.84684809 97.67735106 140.33755122 96.33984375 140.828125 C94.95466875 141.34201291 93.56972942 141.85653647 92.18501282 142.37165833 C89.23145746 143.46887223 86.27629668 144.56160225 83.3197937 145.65084839 C78.71573575 147.3471694 74.11554049 149.05378984 69.51586914 150.76196289 C56.9657735 155.4201452 44.40697878 160.0547334 31.84674072 164.68548584 C27.81804778 166.17165787 23.79062084 167.66124037 19.7633667 169.15130615 C17.06093421 170.14878057 14.35604553 171.13936352 11.65087891 172.12939453 C10.0431957 172.72271476 8.43560452 173.31628441 6.828125 173.91015625 C6.1105452 174.1704512 5.39296539 174.43074615 4.65364075 174.69892883 C1.78132872 175.76632411 -0.22418637 176.53278012 -2.41796875 178.7265625 C-1.26757794 179.87695331 -0.11685141 181.02700957 1.03515625 182.17578125 C2.09243423 183.23572912 3.1442912 184.30110483 4.19140625 185.37109375 C7.82511817 189.06314508 11.54160025 192.57987144 15.53515625 195.8828125 C17.58203125 197.7265625 17.58203125 197.7265625 19.31640625 199.9453125 C22.67142651 203.88260901 25.28576321 205.60177126 30.51538086 206.10522461 C32.15116193 206.09057028 33.78682358 206.05490943 35.421875 206.00390625 C36.35777969 205.98927338 37.29368439 205.9746405 38.25794983 205.95956421 C40.43824634 205.92183091 42.61839185 205.87471851 44.79833984 205.82046509 C48.24176204 205.73500721 51.68498583 205.66497718 55.12884521 205.60093975 C64.46865294 205.42718684 73.80716448 205.21134229 83.14575195 204.98193359 C86.7120758 204.89449194 90.2784563 204.81121859 93.8449707 204.73193359 C113.86676372 204.286012 133.8207497 203.63340498 153.79785156 202.18554688 C171.35372804 200.93129821 188.9845057 200.51706815 206.58203125 200.7265625 C206.00820035 204.3760056 204.639944 206.01404845 202.01171875 208.5546875 C201.27953125 209.27269531 200.54734375 209.99070312 199.79296875 210.73046875 C199.02210938 211.47167969 198.25125 212.21289062 197.45703125 212.9765625 C191.15279073 219.07640765 191.15279073 219.07640765 185.24609375 225.5546875 C180.04138236 231.61961995 174.23739555 237.12690369 168.55224609 242.73583984 C161.63661207 249.52208632 161.63661207 249.52208632 155.12109375 256.6875 C150.24348315 262.39708742 144.79681858 267.57946942 139.45703125 272.8515625 C137.32642873 274.95533285 135.19933644 277.06256588 133.07421875 279.171875 C131.67212158 280.55656982 131.67212158 280.55656982 130.24169922 281.96923828 C127.71027979 284.44857504 127.71027979 284.44857504 126.41021729 286.40667725 C125.23876953 288.07373047 125.23876953 288.07373047 122.58203125 290.7265625 C116.63602347 291.24415685 112.0080994 290.24157535 106.42993164 288.28662109 C105.65581436 288.02625565 104.88169708 287.7658902 104.0841217 287.49763489 C101.52858853 286.63489763 98.97929853 285.75506917 96.4296875 284.875 C94.61155728 284.25730189 92.79306257 283.64067569 90.97422791 283.02505493 C86.16451437 281.39386819 81.35989946 279.74814267 76.55621338 278.0993042 C71.82884243 276.47938316 67.0968713 274.87303312 62.36523438 273.265625 C52.9669039 270.07025643 43.57399217 266.85921262 34.18255615 263.64364624 C25.91650119 260.81350738 17.64801082 257.9904997 9.37955284 255.16739082 C6.78079613 254.28004657 4.18211725 253.39247468 1.58345032 252.50486755 C-7.47136444 249.41248687 -16.52837083 246.32673516 -25.58984375 243.25390625 C-27.40235302 242.63869917 -29.21485341 242.02346596 -31.02734375 241.40820312 C-33.64799708 240.51862584 -36.26893348 239.62992172 -38.890625 238.7434082 C-44.00736297 237.012506 -49.11531595 235.2594354 -54.21508789 233.47918701 C-56.27580779 232.77513246 -58.34543479 232.1149444 -60.42382812 231.46533203 C-61.58205078 231.07845215 -62.74027344 230.69157227 -63.93359375 230.29296875 C-64.91102539 229.98431885 -65.88845703 229.67566895 -66.89550781 229.35766602 C-72.85948372 225.5011694 -74.60524557 216.81143089 -76.82421875 210.37890625 C-77.14116196 209.47533386 -77.45810516 208.57176147 -77.78465271 207.64080811 C-78.47193521 205.68067316 -79.15699336 203.71975717 -79.84005737 201.75814819 C-81.71958149 196.36307693 -83.61760455 190.97452425 -85.515625 185.5859375 C-85.9140712 184.4539946 -86.3125174 183.3220517 -86.72303772 182.1558075 C-90.76786407 170.68931661 -94.92880004 159.26606484 -99.10223389 147.84588623 C-102.45798971 138.65657718 -105.79438305 129.46020713 -109.13262939 120.26452637 C-110.44959537 116.63950857 -111.76946555 113.01555563 -113.08935547 109.39160156 C-115.263685 103.41567791 -117.42108781 97.43387309 -119.56692505 91.44766235 C-120.37945651 89.18869344 -121.19732883 86.93163794 -122.02072144 84.67660522 C-123.15434456 81.5692516 -124.26892291 78.45570545 -125.37890625 75.33984375 C-125.71941513 74.41966461 -126.05992401 73.49948547 -126.41075134 72.55142212 C-126.70752274 71.70598846 -127.00429413 70.86055481 -127.31005859 69.98950195 C-127.57394379 69.25826614 -127.83782898 68.52703033 -128.10971069 67.77363586 C-128.50984917 65.116405 -127.86324901 63.94920094 -126.41796875 61.7265625 C-124.61230469 60.37719727 -124.61230469 60.37719727 -122.40234375 59.16796875 C-121.16194336 58.47634644 -121.16194336 58.47634644 -119.89648438 57.77075195 C-118.99607422 57.28179443 -118.09566406 56.79283691 -117.16796875 56.2890625 C-115.2348095 55.21249392 -113.30254386 54.13431941 -111.37109375 53.0546875 C-110.37787109 52.50232422 -109.38464844 51.94996094 -108.36132812 51.38085938 C-103.83755393 48.83830015 -99.37724938 46.19262812 -94.91796875 43.5390625 C-93.08225097 42.45015035 -91.24630601 41.36162108 -89.41015625 40.2734375 C-88.45206055 39.70560547 -87.49396484 39.13777344 -86.50683594 38.55273438 C-80.69443574 35.11638017 -74.86871392 31.70272464 -69.04296875 28.2890625 C-68.12464767 27.75090408 -68.12464767 27.75090408 -67.18777466 27.20187378 C-42.56536125 12.77451039 -42.56536125 12.77451039 -33.16577148 7.34033203 C-31.19524089 6.18305018 -29.24066912 4.99842897 -27.29711914 3.79638672 C-26.25418701 3.15975098 -25.21125488 2.52311523 -24.13671875 1.8671875 C-23.19634766 1.28227539 -22.25597656 0.69736328 -21.28710938 0.09472656 C-14.44577403 -3.16759843 -7.10208244 -1.80725704 0 0 Z " fill="#8DC044" transform="translate(485.41796875,329.2734375)"/>
<path d="M0 0 C1.00540833 0.14739624 2.01081665 0.29479248 3.04669189 0.44665527 C5.17596691 0.75942271 7.30474695 1.07557654 9.43304443 1.39492798 C14.93483581 2.22037596 20.44012865 3.02176118 25.9453125 3.82421875 C27.01365326 3.98050247 28.08199402 4.13678619 29.18270874 4.29780579 C38.0113435 5.58198725 46.84754926 6.72123123 55.71728516 7.68676758 C61.01001404 8.27242593 66.19731525 9.12302063 71.43017578 10.1081543 C75.29890691 10.78708496 79.17825136 11.19469528 83.0859375 11.57421875 C87.69936286 12.02228524 92.23351215 12.57487687 96.78515625 13.4609375 C105.07997462 15.01756344 113.46660481 15.95906521 121.83779907 17.00430298 C125.99621544 17.52388216 130.15367799 18.05090412 134.311203 18.57756042 C136.43519853 18.84658892 138.5592323 19.1153156 140.68330383 19.38374329 C150.25949405 20.59404579 159.83412365 21.8158379 169.40560913 23.06283569 C171.06267369 23.27813136 172.71992074 23.49202726 174.37734985 23.70449829 C176.66217994 23.99751294 178.94638022 24.29501784 181.23046875 24.59375 C182.51284424 24.75979736 183.79521973 24.92584473 185.11645508 25.09692383 C188.0859375 25.57421875 188.0859375 25.57421875 190.0859375 26.57421875 C188.68741925 31.53670288 185.63732499 34.06113865 181.7734375 37.19921875 C181.15041748 37.71846924 180.52739746 38.23771973 179.88549805 38.77270508 C178.59176046 39.85068352 177.29493067 40.9249611 175.99511719 41.99560547 C173.64885816 43.93561965 171.33174623 45.90827853 169.01538086 47.88378906 C164.62348592 51.62648196 160.19295144 55.3146166 155.7109375 58.94921875 C150.64147335 63.07552678 145.70493937 67.34207593 140.77612305 71.6340332 C136.19516563 75.62113059 131.57861024 79.56226157 126.93457031 83.47558594 C122.92209566 86.85903823 118.93883362 90.27522059 114.9609375 93.69921875 C110.89972874 97.19245731 106.81074779 100.63870582 102.6484375 104.01171875 C97.59739682 108.11337146 92.68465354 112.36012886 87.77807617 116.63208008 C82.12503704 121.55153512 76.41426687 126.39904563 70.68310547 131.22705078 C68.50593625 133.06343411 66.33398191 134.90593675 64.16186523 136.74829102 C62.01447647 138.56801981 59.86312502 140.3830349 57.71191406 142.19824219 C56.0277609 143.62345048 54.34976248 145.05570456 52.671875 146.48828125 C51.58090084 147.412963 50.48976123 148.33744959 49.3984375 149.26171875 C48.42519531 150.09058594 47.45195312 150.91945313 46.44921875 151.7734375 C44.0859375 153.57421875 44.0859375 153.57421875 42.0859375 153.57421875 C42.09117432 154.30084717 42.09641113 155.02747559 42.10180664 155.77612305 C42.21690284 174.40859544 41.86207654 192.95720274 41.0859375 211.57421875 C41.98828125 211.56261719 42.890625 211.55101562 43.8203125 211.5390625 C52.54661939 211.46534143 61.24176772 211.6620142 69.9609375 212.01171875 C78.72257682 212.35767549 87.47878488 212.61785171 96.24609375 212.7578125 C97.17153488 212.77277771 98.09697601 212.78774292 99.05046082 212.80316162 C100.00874283 212.81865051 100.96702484 212.8341394 101.9543457 212.85009766 C128.90705479 213.28711378 155.83539142 214.16689861 182.7734375 215.13671875 C184.235376 215.18934498 184.235376 215.18934498 185.7268486 215.24303436 C197.84679674 215.67995608 209.96648191 216.12384896 222.0859375 216.57421875 C220.29488765 220.55211709 218.46408329 221.88397032 214.6796875 224.12109375 C213.55691406 224.79269531 212.43414062 225.46429687 211.27734375 226.15625 C210.04689331 226.87893742 208.81642405 227.60159281 207.5859375 228.32421875 C206.31309715 229.08215074 205.04097109 229.84128348 203.76953125 230.6015625 C201.80866131 231.77386993 199.84736231 232.94538417 197.88378906 234.11315918 C191.57533976 237.86553158 185.32790883 241.71221019 179.0859375 245.57421875 C160.81453828 256.84395741 142.46777742 267.99205593 124.03564453 278.99707031 C123.28782715 279.44405273 122.54000977 279.89103516 121.76953125 280.3515625 C121.12556396 280.73562256 120.48159668 281.11968262 119.81811523 281.51538086 C118.21556629 282.49497984 116.64872582 283.53235987 115.0859375 284.57421875 C102.75413287 285.09066575 89.87784265 281.91298857 77.7734375 279.88671875 C75.56107911 279.52121824 73.34867624 279.15598684 71.13623047 278.79101562 C58.03602148 276.61989536 44.97078348 274.30719836 31.91870117 271.86450195 C18.06935586 269.30030562 4.14610328 267.20455811 -9.77249146 265.0557251 C-24.24657006 262.81823878 -38.66765493 260.4312823 -53.06201172 257.72924805 C-65.2586254 255.45821341 -77.50288951 253.53420751 -89.7668457 251.66552734 C-99.20926347 250.21787419 -108.56421575 248.5386675 -117.9140625 246.57421875 C-117.9140625 242.57421875 -117.9140625 242.57421875 -116.41015625 240.71484375 C-115.73082031 240.0909375 -115.05148438 239.46703125 -114.3515625 238.82421875 C-110.91361981 235.63423684 -107.85153345 232.24707743 -104.78588867 228.70654297 C-101.72955583 225.22486681 -98.53901394 221.87300245 -95.3515625 218.51171875 C-93.93855223 217.01586097 -92.52579665 215.51976258 -91.11328125 214.0234375 C-90.05826416 212.90654541 -90.05826416 212.90654541 -88.98193359 211.76708984 C-81.08244555 203.39008848 -73.25007859 194.95036808 -65.44775391 186.48291016 C-58.70888178 179.17449321 -51.91154087 171.92048514 -45.12304688 164.65820312 C-39.0564564 158.16728283 -32.99482652 151.672509 -26.9765625 145.13671875 C-21.84605149 139.56502171 -16.66808768 134.0388711 -11.48291016 128.51806641 C-7.58667651 124.36666883 -3.70815897 120.19995401 0.1484375 116.01171875 C4.40253699 111.39179814 8.67469398 106.78933775 12.9609375 102.19921875 C13.54262695 101.5755542 14.12431641 100.95188965 14.72363281 100.30932617 C17.72923315 97.08886267 20.74280414 93.87640293 23.76953125 90.67578125 C30.51488182 83.52596187 37.00757667 76.3088525 43.0859375 68.57421875 C41.85488281 68.53683594 40.62382812 68.49945313 39.35546875 68.4609375 C25.83243595 67.98770851 12.38157228 67.00521271 -1.0982666 65.86904907 C-10.89759022 65.04337036 -20.68353421 64.2472081 -30.51269531 63.86523438 C-33.30781361 63.75103423 -36.0011041 63.5593498 -38.76098633 63.08789062 C-41.79300888 62.59393976 -44.73949208 62.32678344 -47.8046875 62.14453125 C-48.96919434 62.07290771 -50.13370117 62.00128418 -51.33349609 61.92749023 C-52.59758301 61.85216064 -53.86166992 61.77683105 -55.1640625 61.69921875 C-57.93244616 61.52847974 -60.70061592 61.35442235 -63.46875 61.1796875 C-64.20682892 61.13322586 -64.94490784 61.08676422 -65.70535278 61.03889465 C-74.63622868 60.47210646 -83.56287276 59.84546849 -92.48913574 59.21063232 C-94.34333101 59.0789058 -96.19757865 58.94791429 -98.05187988 58.81768799 C-100.68055704 58.6329397 -103.30904778 58.4457309 -105.9375 58.2578125 C-106.71143097 58.20369705 -107.48536194 58.1495816 -108.28274536 58.09382629 C-113.51107192 57.71572648 -118.70693736 57.17871518 -123.9140625 56.57421875 C-122.26973266 52.98106627 -121.07036525 51.78366323 -117.49609375 50.015625 C-116.5834375 49.55414063 -115.67078125 49.09265625 -114.73046875 48.6171875 C-113.24353516 47.88435547 -113.24353516 47.88435547 -111.7265625 47.13671875 C-103.50245688 42.97313646 -95.40765845 38.66505143 -87.4140625 34.07421875 C-78.87544476 29.19064698 -70.23885687 24.55212681 -61.49951172 20.03881836 C-52.86289521 15.57239457 -44.32197533 10.94073247 -35.796875 6.265625 C-34.97477539 5.82105957 -34.15267578 5.37649414 -33.30566406 4.91845703 C-31.73194588 4.03392331 -30.1846786 3.10029386 -28.67089844 2.11669922 C-19.7131319 -3.53801505 -10.03907129 -1.54061639 0 0 Z " fill="#8CBF44" transform="translate(129.9140625,336.42578125)"/>
<path d="M0 0 C7.18153552 -0.24817401 13.94072849 0.58667986 21.03344727 1.67919922 C39.14421047 4.45701442 57.32138361 6.72219193 75.5 9 C93.27720501 11.22879817 111.0411521 13.500113 128.76583862 16.11965942 C138.78820715 17.59703645 148.8068046 18.76361765 158.88623047 19.76904297 C171.38062786 21.06120011 183.79075788 22.91441647 196.21850586 24.72485352 C207.50963396 26.3683018 218.80624118 27.93360242 230.125 29.375 C230.79455719 29.46030975 231.46411438 29.54561951 232.15396118 29.6335144 C235.76878923 30.09317585 239.38411603 30.54872342 243 31 C243.33 31.99 243.66 32.98 244 34 C242.70581055 36.38842773 242.70581055 36.38842773 240.69921875 39.24609375 C239.95720215 40.31843262 239.21518555 41.39077148 238.45068359 42.49560547 C238.04992615 43.06704285 237.6491687 43.63848022 237.23626709 44.22723389 C235.57755181 46.60577672 233.95903896 49.01040989 232.34008789 51.41612244 C231.05947081 53.31867321 229.77383589 55.21774209 228.48681641 57.1159668 C226.66773902 59.79944719 224.85127615 62.48466982 223.03662109 65.17114258 C218.97291959 71.18154425 214.89740472 77.17831275 210.70703125 83.1015625 C210.09174561 83.97675537 209.47645996 84.85194824 208.8425293 85.75366211 C207.72842247 87.33241562 206.60414035 88.90405614 205.46801758 90.46704102 C202.79421591 93.92098727 202.79421591 93.92098727 202.20117188 98.04956055 C203.582919 101.42327013 206.60868712 103.38209245 209.375 105.625 C210.66137563 106.69515052 211.94651804 107.76678505 213.23046875 108.83984375 C213.87032715 109.37206543 214.51018555 109.90428711 215.16943359 110.45263672 C217.74361312 112.62857028 220.21270814 114.89894429 222.6875 117.1875 C226.18259889 120.39645044 229.7428384 123.46065837 233.4375 126.4375 C237.96892441 130.09229038 242.25256159 133.93694147 246.50610352 137.9050293 C250.64248859 141.73880125 254.97463569 145.27387604 259.4296875 148.734375 C262.63322367 151.55816068 265.29809149 154.70271622 268 158 C231.78854366 158.22708583 195.62911434 157.2106343 159.43896866 156.06517792 C157.40019311 156.00079557 155.36139901 155.9370289 153.32260132 155.87335205 C121.01959802 154.85682311 121.01959802 154.85682311 104.93945312 153.48632812 C78.06247883 149.85228192 78.06247883 149.85228192 52.97607422 156.29980469 C46.69199849 161.81855782 43.5032925 169.70808592 40.53320312 177.34326172 C38.12783329 183.08014538 34.70736255 188.04167885 31.25 193.1875 C30.16795578 194.90769719 29.0895917 196.630217 28.015625 198.35546875 C22.09136139 207.62797862 22.09136139 207.62797862 19 211 C18.34 211 17.68 211 17 211 C13.3901842 200.49690287 9.79920227 189.98754409 6.2265625 179.47174072 C3.99274868 172.90138612 1.73999525 166.33779975 -0.52204895 159.77711487 C-2.10000137 155.18859614 -3.66333554 150.59517903 -5.22366333 146.00064087 C-5.98716708 143.76209976 -6.75653887 141.52555093 -7.5319519 139.29110718 C-8.62819289 136.12888835 -9.70295952 132.9600801 -10.7734375 129.7890625 C-11.10089462 128.86028793 -11.42835175 127.93151337 -11.76573181 126.97459412 C-15.08209166 116.99907995 -14.16578818 107.63889299 -12.828125 97.3671875 C-12.70574966 96.3842421 -12.58337433 95.40129669 -12.45729065 94.38856506 C-12.06104212 91.2165651 -11.65555944 88.04582162 -11.25 84.875 C-10.97285218 82.6687889 -10.69640945 80.46248912 -10.4206543 78.25610352 C-9.87156505 73.86683606 -9.31952151 69.47795707 -8.76513672 65.08935547 C-7.83494429 57.70921533 -6.93993261 50.32501747 -6.05325317 42.93954468 C-5.66324629 39.69634255 -5.26893712 36.45366422 -4.875 33.2109375 C-4.43441016 29.58386937 -3.99479346 25.95670049 -3.55859375 22.32910156 C-3.14665387 18.90647493 -2.73014878 15.48443397 -2.3125 12.0625 C-2.19302002 11.06017334 -2.07354004 10.05784668 -1.95043945 9.02514648 C-1.83917725 8.12094971 -1.72791504 7.21675293 -1.61328125 6.28515625 C-1.51829346 5.50019775 -1.42330566 4.71523926 -1.32543945 3.90649414 C-1 2 -1 2 0 0 Z " fill="#8DC045" transform="translate(771,330)"/>
<path d="M0 0 C-0.55715597 4.48764566 -1.71109399 7.88782603 -3.7734375 11.90234375 C-4.63001953 13.58831665 -4.63001953 13.58831665 -5.50390625 15.30834961 C-5.80828613 15.89856903 -6.11266602 16.48878845 -6.42626953 17.09689331 C-8.05890639 20.26432855 -9.66385308 23.44580728 -11.2734375 26.625 C-11.59785828 27.26392685 -11.92227905 27.9028537 -12.25653076 28.56114197 C-14.92051957 33.81541122 -17.48317193 39.11157035 -20 44.4375 C-26.48875572 58.12893943 -33.1840672 71.71990016 -39.85742188 85.32202148 C-40.77106359 87.18592231 -41.68447704 89.04993504 -42.59765625 90.9140625 C-43.04315826 91.82331985 -43.48866028 92.73257721 -43.94766235 93.66938782 C-47.66625946 101.27754862 -51.30995417 108.92040212 -54.9131012 116.58389282 C-55.30456833 117.41262909 -55.69603546 118.24136536 -56.09936523 119.09521484 C-56.61550636 120.19342056 -56.61550636 120.19342056 -57.14207458 121.31381226 C-58 123 -58 123 -59 124 C-66.16713568 124.47345543 -73.16440762 123.73411005 -80.25 122.75 C-92.72063751 121.13412212 -105.21979222 120.08839206 -117.75 119.0625 C-134.13924507 117.71829487 -150.4890969 116.19357803 -166.82519531 114.30688477 C-173.63021798 113.52819274 -180.41066262 112.86396975 -187.25 112.47265625 C-194.05749247 112.08255042 -200.79319805 111.43064302 -207.5625 110.625 C-238.71063743 106.92108098 -238.71063743 106.92108098 -270 105 C-271.01690918 104.93748047 -272.03381836 104.87496094 -273.08154297 104.81054688 C-282.37448863 104.4535736 -289.44896914 106.37553641 -298 109.875 C-300.33322556 110.78933757 -302.66655525 111.70340947 -305 112.6171875 C-306.010625 113.02565918 -307.02125 113.43413086 -308.0625 113.85498047 C-316.13091684 117 -316.13091684 117 -321 117 C-319.77551917 113.32655751 -318.48227147 112.5914338 -315.4375 110.25 C-309.6179479 105.61563084 -304.22230479 100.6209893 -298.83569336 95.49316406 C-294.92555675 91.77728024 -290.94702238 88.16953182 -286.87280273 84.63427734 C-284.24694682 82.34285778 -281.68670975 79.98801758 -279.125 77.625 C-278.08618995 76.67029815 -277.04712373 75.71587497 -276.0078125 74.76171875 C-275.50024414 74.29556152 -274.99267578 73.8294043 -274.46972656 73.34912109 C-271.51148721 70.63363427 -268.55285087 67.92288729 -265.53515625 65.2734375 C-263.74285577 63.6661665 -262.00472983 61.99750726 -260.30859375 60.2890625 C-254.93244761 55.18355229 -251.33143335 52.5219528 -243.87109375 51.8125 C-242.79769241 51.70694542 -242.79769241 51.70694542 -241.7026062 51.59925842 C-229.70856476 50.50209796 -217.65178923 50.02884057 -205.625 49.4375 C-201.8467992 49.25008161 -198.06871837 49.06097769 -194.29086304 48.86671448 C-191.95726969 48.74682298 -189.62346848 48.63089593 -187.28945923 48.51939392 C-186.24341522 48.46586258 -185.19737122 48.41233124 -184.11962891 48.35717773 C-182.74093124 48.28961525 -182.74093124 48.28961525 -181.3343811 48.22068787 C-178.84603706 48.07397651 -178.84603706 48.07397651 -176 47 C-173.00011849 46.78768425 -170.01540021 46.62391324 -167.01171875 46.5 C-166.11693314 46.45939453 -165.22214752 46.41878906 -164.30024719 46.37695312 C-161.42949521 46.24725587 -158.55853377 46.12328854 -155.6875 46 C-149.25839902 45.71820052 -142.83030156 45.42244861 -136.402771 45.10687256 C-134.27416804 45.01219469 -132.144129 44.95111941 -130.01416016 44.89501953 C-121.95879435 44.57874766 -115.39213019 42.75919805 -107.9559021 39.68295288 C-104.35904218 38.19714572 -100.73359294 36.78293674 -97.11328125 35.35546875 C-96.28862869 35.02829361 -95.46397614 34.70111847 -94.61433411 34.36402893 C-81.90750827 29.34554557 -69.06480361 24.67841251 -56.24859619 19.94834137 C-50.9408639 17.98902364 -45.6343625 16.02637916 -40.32837296 14.06234741 C-39.0607963 13.59332474 -37.79310476 13.1246124 -36.52529526 12.65621948 C-30.18586432 10.31400185 -23.85441406 7.95528535 -17.54931641 5.52197266 C-16.57037918 5.14446365 -15.59144196 4.76695465 -14.58283997 4.37800598 C-12.78436306 3.68162823 -10.98758992 2.98082706 -9.19291687 2.27470398 C-8.41164932 1.97175919 -7.63038177 1.66881439 -6.82543945 1.35668945 C-6.15350052 1.0927388 -5.48156158 0.82878815 -4.78926086 0.55683899 C-3 0 -3 0 0 0 Z " fill="#036839" transform="translate(1040,491)"/>
<path d="M0 0 C1.010625 -0.00773437 2.02125 -0.01546875 3.0625 -0.0234375 C6.35527473 0.30975994 9.24373356 0.85879275 12.4453125 1.6328125 C21.7308901 3.86489706 31.13634724 5.41432325 40.54251099 7.04663086 C45.10766407 7.83893465 49.67143068 8.63909385 54.23530579 9.4387207 C56.54829706 9.84389548 58.86135652 10.24868115 61.17448425 10.65307617 C70.9753336 12.36704347 80.77040308 14.11179284 90.5625 15.875 C91.31788055 16.01091553 92.07326111 16.14683105 92.85153198 16.28686523 C96.79988667 16.99731684 100.74812231 17.70842665 104.69628906 18.41992188 C109.65905659 19.3139907 114.62226336 20.20560538 119.58552551 21.09692383 C124.09386116 21.90659043 128.6020983 22.71680466 133.11032104 23.52709961 C135.29317171 23.91936203 137.47605238 24.31145754 139.65896606 24.70336914 C141.73003611 25.0752642 143.80104688 25.44748947 145.87199402 25.82006836 C147.8514837 26.17602582 149.83114575 26.53102623 151.81098938 26.88500977 C156.10602119 27.65617424 160.39481055 28.44335544 164.67236328 29.30664062 C177.47976139 31.88514726 187.02986353 31.49543192 199.75 28.5 C200.94238281 28.23058594 202.13476562 27.96117187 203.36328125 27.68359375 C209.81481595 26.21875291 209.81481595 26.21875291 216.13378906 24.28076172 C219 23.375 219 23.375 223 23.375 C222.40065384 27.4129173 221.104996 30.37470619 219.11328125 33.92578125 C218.51136963 35.00512939 217.90945801 36.08447754 217.28930664 37.1965332 C216.63065797 38.3603512 215.97171526 39.52400284 215.3125 40.6875 C214.63562915 41.89327287 213.95912029 43.09924902 213.28295898 44.30541992 C207.6709023 54.29038521 201.91599705 64.19187445 196.10546875 74.0625 C194.19466016 77.31336369 192.31480509 80.57605142 190.48828125 83.875 C190.123396 84.53137451 189.75851074 85.18774902 189.38256836 85.86401367 C188.46397705 87.52647029 187.55564876 89.19458724 186.6484375 90.86328125 C184.88810614 93.5454923 183.86995995 94.94002003 181 96.375 C175.41008595 96.76212941 170.0909077 96.10379042 164.5625 95.25 C163.70052002 95.12238281 162.83854004 94.99476563 161.95043945 94.86328125 C159.88946717 94.55797749 157.82887145 94.25012627 155.76855469 93.94042969 C147.74384289 92.736411 139.71575421 91.55513469 131.6875 90.375 C130.7853476 90.24230713 129.88319519 90.10961426 128.95370483 89.97290039 C115.97762378 88.06748344 102.99625467 86.29903724 89.97412109 84.73583984 C84.20874537 84.03634671 78.448021 83.30076305 72.6875 82.5625 C71.42631348 82.40152832 70.16512695 82.24055664 68.86572266 82.07470703 C60.85009424 81.04288931 52.84729019 79.93434915 44.84765625 78.78515625 C42.90861124 78.5082109 40.96956501 78.23127406 39.03051758 77.9543457 C35.24647029 77.41343824 31.46411217 76.86220775 27.68237305 76.30541992 C15.84089685 74.5843402 15.84089685 74.5843402 3.88964844 74.37597656 C2 74.375 2 74.375 0 73.375 C-2.96241773 73.15955144 -5.90845709 72.99751538 -8.875 72.875 C-10.19540283 72.8140918 -10.19540283 72.8140918 -11.54248047 72.75195312 C-14.36147924 72.62202232 -17.18068339 72.49782931 -20 72.375 C-23.70858582 72.21342785 -27.41684069 72.04605183 -31.125 71.875 C-32.41253174 71.82182617 -32.41253174 71.82182617 -33.72607422 71.76757812 C-39.77439638 71.48780181 -39.77439638 71.48780181 -42 70.375 C-43.3716086 70.23474739 -44.74907041 70.14936398 -46.12670898 70.09375 C-46.97776718 70.05701172 -47.82882538 70.02027344 -48.70567322 69.98242188 C-49.62651199 69.94697266 -50.54735077 69.91152344 -51.49609375 69.875 C-52.91282127 69.8140918 -52.91282127 69.8140918 -54.35816956 69.75195312 C-57.38444949 69.62199411 -60.41092318 69.49783847 -63.4375 69.375 C-67.41559117 69.21326073 -71.39338414 69.04583735 -75.37109375 68.875 C-76.28990829 68.83955078 -77.20872284 68.80410156 -78.15538025 68.76757812 C-79.00959061 68.73083984 -79.86380096 68.69410156 -80.74389648 68.65625 C-81.49509262 68.62595703 -82.24628876 68.59566406 -83.02024841 68.56445312 C-85 68.375 -85 68.375 -88 67.375 C-89.74846055 67.23812868 -91.50101616 67.15053355 -93.25390625 67.09375 C-94.27291016 67.05636719 -95.29191406 67.01898438 -96.34179688 66.98046875 C-98.49283436 66.91002847 -100.64387605 66.83971643 -102.79492188 66.76953125 C-103.81263672 66.73214844 -104.83035156 66.69476563 -105.87890625 66.65625 C-106.8129126 66.62595703 -107.74691895 66.59566406 -108.70922852 66.56445312 C-111 66.375 -111 66.375 -113 65.375 C-111.781803 61.72040901 -110.94018654 61.47086637 -107.671875 59.6171875 C-106.74165527 59.08279053 -105.81143555 58.54839355 -104.85302734 57.99780273 C-103.31702881 57.13264038 -103.31702881 57.13264038 -101.75 56.25 C-99.54912249 54.98890352 -97.34861779 53.72715624 -95.1484375 52.46484375 C-93.97103403 51.79279655 -92.79362509 51.12075895 -91.61621094 50.44873047 C-86.12577392 47.30785839 -80.67414168 44.10064875 -75.2204895 40.89648438 C-73.36432814 39.80623167 -71.50734847 38.7173852 -69.65014648 37.62890625 C-62.35961219 33.35496412 -55.08220164 29.05928668 -47.8125 24.75 C-38.43927123 19.19507026 -29.00901918 13.74115648 -19.5637207 8.31005859 C-18.52046631 7.71016113 -17.47721191 7.11026367 -16.40234375 6.4921875 C-15.47929443 5.96222168 -14.55624512 5.43225586 -13.60522461 4.88623047 C-11.83200892 3.85762911 -10.0778416 2.79563347 -8.34204102 1.70507812 C-5.39253429 0.03001166 -3.37749315 -0.0253312 0 0 Z " fill="#019245" transform="translate(473,327.625)"/>
<path d="M0 0 C4.83630893 0.1081869 9.67297268 0.15928039 14.51013184 0.21343994 C56.04838155 0.73814887 97.57033088 2.52635581 139.08044434 4.06890869 C137.28939449 8.04680703 135.45859012 9.37866026 131.67419434 11.61578369 C130.5514209 12.28738525 129.42864746 12.95898682 128.27185059 13.65093994 C127.04140014 14.37362736 125.81093089 15.09628275 124.58044434 15.81890869 C123.30760398 16.57684068 122.03547793 17.33597342 120.76403809 18.09625244 C118.80316814 19.26855987 116.84186915 20.44007412 114.8782959 21.60784912 C108.56984659 25.36022152 102.32241567 29.20690013 96.08044434 33.06890869 C77.80904512 44.33864736 59.46228426 55.48674588 41.03015137 66.49176025 C40.28233398 66.93874268 39.5345166 67.3857251 38.76403809 67.84625244 C38.1200708 68.2303125 37.47610352 68.61437256 36.81262207 69.0100708 C35.21007313 69.98966978 33.64323266 71.02704981 32.08044434 72.06890869 C19.7486397 72.58535569 6.87234949 69.40767851 -5.23205566 67.38140869 C-7.44441406 67.01590818 -9.65681692 66.65067678 -11.8692627 66.28570557 C-24.96947169 64.1145853 -38.03470969 61.8018883 -51.08679199 59.35919189 C-64.9361373 56.79499557 -78.85938988 54.69924805 -92.77798462 52.55041504 C-107.25058237 50.31315764 -121.67074131 47.92869814 -136.06311035 45.22393799 C-148.31770286 42.94007074 -160.62255411 41.01843268 -172.94812012 39.16021729 C-181.71677754 37.82451665 -190.30909788 36.23099351 -198.91955566 34.06890869 C-196.50441131 31.65376434 -195.17049372 31.50762207 -191.85681152 30.81964111 C-190.79647202 30.59568161 -189.73613251 30.37172211 -188.6436615 30.14097595 C-187.48560501 29.90449844 -186.32754852 29.66802094 -185.13439941 29.42437744 C-183.93134659 29.17271317 -182.72829376 28.92104889 -181.48878479 28.66175842 C-178.26575737 27.98913667 -175.04144235 27.32318799 -171.81640625 26.66027832 C-168.63666955 26.00485754 -165.45890274 25.34002234 -162.28088379 24.67633057 C-149.40007732 21.99300549 -136.50707963 19.37462444 -123.60290527 16.80622864 C-115.26740827 15.14516639 -106.9446723 13.42929157 -98.62908936 11.67144775 C-96.23218179 11.16766253 -93.83358109 10.67254392 -91.43469238 10.17828369 C-83.92161952 8.62042027 -76.46574506 6.99663433 -69.05627441 4.99859619 C-46.0169168 -1.05320284 -23.68011743 -0.58557036 0 0 Z " fill="#036839" transform="translate(212.9195556640625,548.9310913085938)"/>
<path d="M0 0 C-0.5738309 3.6494431 -1.94208725 5.28748595 -4.5703125 7.828125 C-5.66859375 8.90513672 -5.66859375 8.90513672 -6.7890625 10.00390625 C-7.55992187 10.74511719 -8.33078125 11.48632812 -9.125 12.25 C-15.42924052 18.34984515 -15.42924052 18.34984515 -21.3359375 24.828125 C-26.54064889 30.89305745 -32.3446357 36.40034119 -38.02978516 42.00927734 C-44.94541918 48.79552382 -44.94541918 48.79552382 -51.4609375 55.9609375 C-56.3385481 61.67052492 -61.78521267 66.85290692 -67.125 72.125 C-69.25560252 74.22877035 -71.38269481 76.33600338 -73.5078125 78.4453125 C-74.44254395 79.36844238 -75.37727539 80.29157227 -76.34033203 81.24267578 C-78.87175146 83.72201254 -78.87175146 83.72201254 -80.17181396 85.68011475 C-81.34326172 87.34716797 -81.34326172 87.34716797 -84 90 C-89.94600778 90.51759435 -94.57393185 89.51501285 -100.15209961 87.56005859 C-100.92621689 87.29969315 -101.70033417 87.0393277 -102.49790955 86.77107239 C-105.05344272 85.90833513 -107.60273272 85.02850667 -110.15234375 84.1484375 C-111.97047397 83.53073939 -113.78896868 82.91411319 -115.60780334 82.29849243 C-120.41751688 80.66730569 -125.22213179 79.02158017 -130.02581787 77.3727417 C-134.75318883 75.75282066 -139.48516012 74.14647113 -144.21679688 72.5390625 C-153.61548007 69.34356367 -163.00878528 66.13250674 -172.40057373 62.91680908 C-180.66164451 60.08829774 -188.92490541 57.26619851 -197.18826485 54.44438171 C-198.93184631 53.84895102 -200.67540101 53.25344194 -202.41892815 52.65785217 C-212.37883308 49.25555564 -222.34159689 45.86215094 -232.3125 42.4921875 C-235.00753561 41.57989616 -237.70250581 40.66741187 -240.39746094 39.75488281 C-242.18933437 39.14907495 -243.98168028 38.54466338 -245.77441406 37.94140625 C-248.49678721 37.02475668 -251.21728724 36.10272521 -253.9375 35.1796875 C-255.11856323 34.78437332 -255.11856323 34.78437332 -256.32348633 34.381073 C-261.69467126 32.55101951 -266.85054142 30.38169126 -272 28 C-268.95367035 24.60615496 -265.831436 24.0191825 -261.484375 23.16796875 C-260.72875275 23.01082397 -259.97313049 22.8536792 -259.1946106 22.69177246 C-256.71520361 22.17926388 -254.2328053 21.68325948 -251.75 21.1875 C-250.03254028 20.83589391 -248.3152563 20.48342838 -246.59814453 20.13012695 C-234.47015354 17.64701159 -222.31991683 15.26718448 -210.15136719 12.9909668 C-204.60320748 11.94426715 -199.13293348 10.8087116 -193.671875 9.37109375 C-188.8612048 8.13311816 -184.33017831 7.51182938 -179.375 7.375 C-174.53938703 7.37096451 -174.53938703 7.37096451 -170 6 C-160.96751917 4.76494945 -151.78009281 4.76668939 -142.67789268 4.58500862 C-140.12694303 4.5337026 -137.57615407 4.47714643 -135.02534485 4.41929626 C-127.77917384 4.25577873 -120.53283896 4.10048299 -113.28637695 3.95043945 C-93.07240074 3.5289746 -72.93032472 2.9326038 -52.76220703 1.46118164 C-35.21497371 0.19680502 -17.58948524 -0.20939863 0 0 Z " fill="#036839" transform="translate(692,530)"/>
<path d="M0 0 C1.00540833 0.14739624 2.01081665 0.29479248 3.04669189 0.44665527 C5.17596691 0.75942271 7.30474695 1.07557654 9.43304443 1.39492798 C14.93483581 2.22037596 20.44012865 3.02176118 25.9453125 3.82421875 C27.01365326 3.98050247 28.08199402 4.13678619 29.18270874 4.29780579 C38.0113435 5.58198725 46.84754926 6.72123123 55.71728516 7.68676758 C61.01001404 8.27242593 66.19731525 9.12302063 71.43017578 10.1081543 C75.29890691 10.78708496 79.17825136 11.19469528 83.0859375 11.57421875 C87.69936286 12.02228524 92.23351215 12.57487687 96.78515625 13.4609375 C105.07997462 15.01756344 113.46660481 15.95906521 121.83779907 17.00430298 C125.99621544 17.52388216 130.15367799 18.05090412 134.311203 18.57756042 C136.43519853 18.84658892 138.5592323 19.1153156 140.68330383 19.38374329 C150.25949405 20.59404579 159.83412365 21.8158379 169.40560913 23.06283569 C171.06267369 23.27813136 172.71992074 23.49202726 174.37734985 23.70449829 C176.66217994 23.99751294 178.94638022 24.29501784 181.23046875 24.59375 C182.51284424 24.75979736 183.79521973 24.92584473 185.11645508 25.09692383 C188.0859375 25.57421875 188.0859375 25.57421875 190.0859375 26.57421875 C189.7559375 27.56421875 189.4259375 28.55421875 189.0859375 29.57421875 C186.93481445 30.4621582 186.93481445 30.4621582 184.07421875 31.1875 C183.0176709 31.46271484 181.96112305 31.73792969 180.87255859 32.02148438 C179.72609863 32.30701172 178.57963867 32.59253906 177.3984375 32.88671875 C175.00120403 33.50743392 172.60407006 34.12853353 170.20703125 34.75 C169.00288574 35.05760254 167.79874023 35.36520508 166.55810547 35.68212891 C161.6801706 36.93539666 156.81914987 38.24685055 151.9609375 39.57421875 C151.0750293 39.81503174 150.18912109 40.05584473 149.27636719 40.30395508 C142.54242236 42.14562936 135.84416932 44.09872971 129.1484375 46.07421875 C120.24354556 48.70016796 111.30365442 51.13048146 102.31323242 53.4453125 C91.70090942 56.17808386 81.14989877 59.11054001 70.62109375 62.1484375 C69.22431396 62.550625 69.22431396 62.550625 67.79931641 62.9609375 C66.00783706 63.47774069 64.21708852 63.99708712 62.42724609 64.51953125 C59.98529176 65.22499532 57.53861338 65.9070466 55.0859375 66.57421875 C54.34875488 66.77869629 53.61157227 66.98317383 52.85205078 67.19384766 C40.48488153 70.32064139 27.21477194 68.11970305 14.6484375 67.19921875 C12.72699261 67.06103761 10.80552428 66.92318199 8.8840332 66.78564453 C5.06545985 66.51189218 1.24704014 66.23612 -2.57128906 65.95898438 C-7.29682809 65.61706421 -12.02313793 65.28788508 -16.75 64.96484375 C-18.03205322 64.87638184 -19.31410645 64.78791992 -20.63500977 64.69677734 C-22.96089619 64.53645861 -25.28689936 64.37782126 -27.61303711 64.22119141 C-28.6366333 64.1494873 -29.66022949 64.0777832 -30.71484375 64.00390625 C-31.58278564 63.94444824 -32.45072754 63.88499023 -33.3449707 63.82373047 C-35.19509159 63.64404563 -37.03804407 63.38415069 -38.87084961 63.07421875 C-41.86437851 62.58238183 -44.7774291 62.32452776 -47.8046875 62.14453125 C-48.96919434 62.07290771 -50.13370117 62.00128418 -51.33349609 61.92749023 C-52.59758301 61.85216064 -53.86166992 61.77683105 -55.1640625 61.69921875 C-57.93244616 61.52847974 -60.70061592 61.35442235 -63.46875 61.1796875 C-64.20682892 61.13322586 -64.94490784 61.08676422 -65.70535278 61.03889465 C-74.63622868 60.47210646 -83.56287276 59.84546849 -92.48913574 59.21063232 C-94.34333101 59.0789058 -96.19757865 58.94791429 -98.05187988 58.81768799 C-100.68055704 58.6329397 -103.30904778 58.4457309 -105.9375 58.2578125 C-106.71143097 58.20369705 -107.48536194 58.1495816 -108.28274536 58.09382629 C-113.51107192 57.71572648 -118.70693736 57.17871518 -123.9140625 56.57421875 C-122.26973266 52.98106627 -121.07036525 51.78366323 -117.49609375 50.015625 C-116.5834375 49.55414063 -115.67078125 49.09265625 -114.73046875 48.6171875 C-113.24353516 47.88435547 -113.24353516 47.88435547 -111.7265625 47.13671875 C-103.50245688 42.97313646 -95.40765845 38.66505143 -87.4140625 34.07421875 C-78.87544476 29.19064698 -70.23885687 24.55212681 -61.49951172 20.03881836 C-52.86289521 15.57239457 -44.32197533 10.94073247 -35.796875 6.265625 C-34.97477539 5.82105957 -34.15267578 5.37649414 -33.30566406 4.91845703 C-31.73194588 4.03392331 -30.1846786 3.10029386 -28.67089844 2.11669922 C-19.7131319 -3.53801505 -10.03907129 -1.54061639 0 0 Z " fill="#036939" transform="translate(129.9140625,336.42578125)"/>
<path d="M0 0 C9.66204734 -0.25603391 18.79610768 0.26633066 28.37063599 1.73632812 C32.24217185 2.32936253 36.11939385 2.88331013 39.99609375 3.44140625 C40.84743393 3.56468292 41.69877411 3.68795959 42.57591248 3.81497192 C54.55074259 5.53314802 66.55933282 6.99589256 78.5625 8.5 C94.83452849 10.54385166 111.08431619 12.67245821 127.30908203 15.06253052 C137.47421826 16.55543839 147.64135049 17.74768783 157.86450195 18.76660156 C173.22902393 20.35524259 188.49573465 22.71843408 203.77653503 24.9541626 C211.55461808 26.08910725 219.34132434 27.15179233 227.13818359 28.15039062 C232.78733873 28.89366936 232.78733873 28.89366936 235 30 C234.67 30.99 234.34 31.98 234 33 C231.18359375 34.24609375 231.18359375 34.24609375 227.4375 35.4375 C226.76203125 35.6535791 226.0865625 35.8696582 225.390625 36.09228516 C220.16179938 37.72931351 214.87696467 39.07180493 209.54663086 40.33959961 C203.45411681 41.8171233 197.48604801 43.64215984 191.5 45.5 C183.47500153 47.98956215 175.45488766 50.2470329 167.27734375 52.17578125 C164.06216408 52.91480626 164.06216408 52.91480626 161.32177734 54.02783203 C157.37429182 55.18312288 153.65108864 55.33337183 149.57421875 55.37890625 C148.78602249 55.39590073 147.99782623 55.4128952 147.18574524 55.43040466 C144.68640992 55.48322924 142.18708963 55.52372614 139.6875 55.5625 C137.17013637 55.60642006 134.65290068 55.65302783 132.13569641 55.70530701 C130.57328475 55.73729215 129.01075888 55.76417356 127.44816589 55.78553772 C123.92948831 55.53481169 123.92948831 55.53481169 121 57 C118.61171973 57.10040905 116.25235292 57.1361768 113.86352539 57.12939453 C112.74089294 57.13202301 112.74089294 57.13202301 111.59558105 57.13470459 C109.09624976 57.13913741 106.5969884 57.13617282 104.09765625 57.1328125 C102.34533169 57.13348689 100.59300722 57.13445804 98.84068298 57.13571167 C95.14239626 57.13719196 91.44413355 57.13502998 87.74584961 57.13037109 C84.00169276 57.12587689 80.25758439 57.12573785 76.51342773 57.13037109 C64.34168766 57.14538568 52.17124373 57.11642971 40 57 C39.27633995 56.99350937 38.5526799 56.98701874 37.80709076 56.98033142 C33.43131693 56.9376186 29.0581162 56.85369775 24.68359375 56.7421875 C23.6470314 56.72858185 22.61046906 56.7149762 21.54249573 56.70095825 C17.34812153 56.5594821 14.65057095 56.35817136 10.93310547 54.31152344 C8.6530965 51.58518789 8.04594915 49.75552629 7.38671875 46.2734375 C7.04326416 44.54432129 7.04326416 44.54432129 6.69287109 42.78027344 C6.46422363 41.5327832 6.23557617 40.28529297 6 39 C5.73900688 37.6847196 5.47544775 36.36994607 5.20947266 35.05566406 C4.5184993 31.61885957 3.85784098 28.17714756 3.21020508 24.73193359 C2.80875297 22.60514924 2.39762268 20.48036885 1.98632812 18.35546875 C1.7259713 16.97927838 1.4661848 15.60297997 1.20703125 14.2265625 C0.9747583 13.00533691 0.74248535 11.78411133 0.50317383 10.52587891 C-0.00475015 6.96671435 -0.08884338 3.58996275 0 0 Z " fill="#036838" transform="translate(772,331)"/>
<path d="M0 0 C0.62302002 0.03062027 1.24604004 0.06124054 1.88793945 0.0927887 C17.51628214 0.82770791 33.10620613 1.07983485 48.75 1.02734375 C49.65143738 1.02466114 50.55287476 1.02197853 51.48162842 1.01921463 C59.91278307 0.99292407 68.34385208 0.95332176 76.77490234 0.90405273 C81.44315038 0.87731835 86.11135296 0.86026143 90.77966309 0.84918404 C92.54034157 0.84299658 94.30101113 0.83301943 96.06164551 0.81910515 C98.49818928 0.79993928 100.93448491 0.79300351 103.37109375 0.78881836 C104.08883469 0.78005676 104.80657562 0.77129517 105.54606628 0.76226807 C109.25958557 0.76956832 111.80149814 1.10305125 115 3 C117.62608086 3.23657603 117.62608086 3.23657603 120.47265625 3.1328125 C141.64915461 3.06840219 141.64915461 3.06840219 148.796875 9.68359375 C149.52390625 10.44800781 150.2509375 11.21242188 151 12 C152.72330366 13.5274737 154.4525267 15.04829426 156.1875 16.5625 C156.99445313 17.30757813 157.80140625 18.05265625 158.6328125 18.8203125 C161.5270955 21.48534536 164.50810517 24.04009756 167.50390625 26.58984375 C169 28 169 28 170 30 C156.64565634 34.98033278 142.89029907 37.92352589 129 41 C124.45211495 42.01464443 119.90498417 43.03258736 115.3586731 44.05426025 C114.03247885 44.35226172 112.70620471 44.64990786 111.37985229 44.94720459 C102.90953185 46.84778588 94.47291762 48.849033 86.0625 51 C75.32667691 53.7439774 64.52144547 56.11981501 53.69018555 58.44946289 C44.87927171 60.34782859 36.10007863 62.34715145 27.36645508 64.57836914 C19.20386843 66.60500777 19.20386843 66.60500777 15 66 C12.47261591 63.25106937 11.50062167 60.88076657 10.77319336 57.25415039 C10.57966782 56.31539566 10.38614227 55.37664093 10.18675232 54.40943909 C9.98977249 53.39905075 9.79279266 52.38866241 9.58984375 51.34765625 C9.27038536 49.77098427 9.27038536 49.77098427 8.94447327 48.16246033 C8.4951201 45.93505279 8.05078177 43.70662856 7.61108398 41.47729492 C6.94577197 38.10443552 6.26636869 34.73467673 5.58398438 31.36523438 C5.1475999 29.19287642 4.71202804 27.02035504 4.27734375 24.84765625 C3.97883766 23.35940086 3.97883766 23.35940086 3.67430115 21.84107971 C2.24676753 14.58900351 1.07677315 7.31199069 0 0 Z " fill="#FDFEFD" transform="translate(784,386)"/>
<path d="M0 0 C5.33595378 -0.32521614 10.18312872 -0.09015228 15.37109375 1.24609375 C24.68264264 3.47721158 34.11160939 5.03503035 43.54251099 6.67163086 C48.10766407 7.46393465 52.67143068 8.26409385 57.23530579 9.0637207 C59.54829706 9.46889548 61.86135652 9.87368115 64.17448425 10.27807617 C73.9753336 11.99204347 83.77040308 13.73679284 93.5625 15.5 C94.31788055 15.63591553 95.07326111 15.77183105 95.85153198 15.91186523 C99.79988667 16.62231684 103.74812231 17.33342665 107.69628906 18.04492188 C112.65905659 18.9389907 117.62226336 19.83060538 122.58552551 20.72192383 C127.09386116 21.53159043 131.6020983 22.34180466 136.11032104 23.15209961 C138.29317171 23.54436203 140.47605238 23.93645754 142.65896606 24.32836914 C154.78175266 26.505217 166.89908223 28.70433105 179 31 C179 31.99 179 32.98 179 34 C168.7586925 36.89272019 158.42568804 39.31390077 148.05554199 41.69680786 C138.19808566 43.9669905 128.40736826 46.42257974 118.625 49 C107.49485749 51.92927133 96.32681059 54.52676501 85.07077026 56.92422485 C74.71809481 59.13237456 64.44667241 61.58020322 54.1875 64.1875 C36.59275277 68.64514479 36.59275277 68.64514479 28.0625 70.5 C27.35440186 70.66008545 26.64630371 70.8201709 25.91674805 70.98510742 C20.85609633 72.04723471 16.14162883 72.12062472 11 72 C9.4820536 69.24476514 8.69937417 67.00042584 8.359375 63.87890625 C8.21205933 62.62605835 8.21205933 62.62605835 8.06176758 61.34790039 C7.95888428 60.42871826 7.85600098 59.50953613 7.75 58.5625 C6.82747509 50.85478843 5.73934395 43.18907318 4.47265625 35.53125 C4.33711334 34.71099838 4.20157043 33.89074677 4.06192017 33.04563904 C3.37834678 28.92721134 2.68417858 24.81075473 1.98144531 20.69555664 C1.72317366 19.15252887 1.46503018 17.60947964 1.20703125 16.06640625 C1.08530045 15.3712793 0.96356964 14.67615234 0.83815002 13.95996094 C0.05380619 9.22953122 -0.1030379 4.77475616 0 0 Z " fill="#026838" transform="translate(470,328)"/>
<path d="M0 0 C-7.60689447 7.68868903 -15.64869762 14.79884104 -24.05859375 21.59375 C-27.37387977 24.30585649 -30.62869677 27.0810578 -33.875 29.875 C-38.42291641 33.7883667 -42.97971745 37.68998979 -47.5625 41.5625 C-48.36192017 42.23817017 -48.36192017 42.23817017 -49.17749023 42.92749023 C-51.31933287 44.73707308 -53.46192673 46.54576529 -55.60449219 48.35449219 C-57.21584484 49.71508114 -58.82680129 51.07613696 -60.4375 52.4375 C-60.96980225 52.88730225 -61.50210449 53.33710449 -62.05053711 53.80053711 C-65.4920141 56.71263563 -68.91662349 59.64363787 -72.33398438 62.58398438 C-76.99181926 66.59165256 -81.66303636 70.56841613 -86.4375 74.4375 C-91.48854068 78.53915271 -96.40128396 82.78591011 -101.30786133 87.05786133 C-106.96090046 91.97731637 -112.67167063 96.82482688 -118.40283203 101.65283203 C-120.58000125 103.48921536 -122.75195559 105.331718 -124.92407227 107.17407227 C-127.07146103 108.99380106 -129.22281248 110.80881615 -131.37402344 112.62402344 C-133.0581766 114.04923173 -134.73617502 115.48148581 -136.4140625 116.9140625 C-137.50503666 117.83874425 -138.59617627 118.76323084 -139.6875 119.6875 C-140.66074219 120.51636719 -141.63398438 121.34523438 -142.63671875 122.19921875 C-145 124 -145 124 -147 124 C-147.12869412 95.64769473 -146.87954253 67.33951531 -146 39 C-144.86199951 38.73880371 -143.72399902 38.47760742 -142.55151367 38.20849609 C-141.02779805 37.85528978 -139.50411832 37.50192863 -137.98046875 37.1484375 C-136.86085754 36.89211548 -136.86085754 36.89211548 -135.71862793 36.63061523 C-130.83822623 35.4942829 -126.08409735 34.15615961 -121.3125 32.625 C-120.58506592 32.39232422 -119.85763184 32.15964844 -119.1081543 31.91992188 C-118.51945557 31.72978516 -117.93075684 31.53964844 -117.32421875 31.34375 C-107.57203513 28.26005558 -97.62926339 25.77212015 -87.75048828 23.13134766 C-84.39587278 22.23446244 -81.04156858 21.33642834 -77.6875 20.4375 C-76.57640869 20.1398877 -75.46531738 19.84227539 -74.32055664 19.53564453 C-67.72204592 17.75948117 -61.16300301 15.8897594 -54.62207031 13.91381836 C-46.77905334 11.57967737 -38.83663953 9.62009633 -30.90795898 7.60131836 C-23.1823593 5.61676566 -15.59272732 3.40668649 -8.0390625 0.84765625 C-5.18222989 0.05082762 -2.94328229 -0.18188823 0 0 Z " fill="#47AE4C" transform="translate(319,366)"/>
<path d="M0 0 C8.04375 -0.061875 16.0875 -0.12375 24.375 -0.1875 C26.89431152 -0.21481201 29.41362305 -0.24212402 32.00927734 -0.27026367 C34.03482587 -0.27903604 36.06037974 -0.2866782 38.0859375 -0.29296875 C39.11436768 -0.30831665 40.14279785 -0.32366455 41.20239258 -0.33947754 C50.62753081 -0.34284767 60.01256437 1.14843117 67 8 C69.94177464 12.36521398 70.71969386 15.7822195 70 21 C67.32840757 27.48108533 63.11254073 30.84514027 57 34 C58.216875 34.391875 59.43375 34.78375 60.6875 35.1875 C65.97652451 37.16269322 68.8927877 40.33918155 72 45 C72.45973486 50.60876529 72.18152851 54.17285329 69 59 C63.43918028 64.90837095 54.77770471 67.18837189 46.88598633 67.45410156 C44.70123239 67.45311888 42.51639912 67.43170674 40.33203125 67.390625 C39.30122437 67.38659668 38.27041748 67.38256836 37.20837402 67.37841797 C33.4095646 67.3577122 29.61101173 67.30186935 25.8125 67.25 C17.294375 67.1675 8.77625 67.085 0 67 C0 44.89 0 22.78 0 0 Z " fill="#0B0B0B" transform="translate(27,654)"/>
<path d="M0 0 C2.97 0 5.94 0 9 0 C9.33 9.24 9.66 18.48 10 28 C11.65 26.35 13.3 24.7 15 23 C23.32270883 16.44222358 33.93639917 16.82127738 44 18 C51.29007286 19.71377608 56.78758586 22.98865853 61.25 29.0625 C65.11824904 35.55563232 64.5346114 42.68346117 64 50 C62.41880948 56.22950965 58.36498533 60.62315634 53 64 C43.67266666 68.80544213 33.81702736 69.46952618 23.6875 66.875 C17.60578254 64.79154051 12.57242111 61.35863167 9 56 C8.86722656 56.71027344 8.73445313 57.42054688 8.59765625 58.15234375 C8.42105469 59.07144531 8.24445313 59.99054687 8.0625 60.9375 C7.88847656 61.85402344 7.71445312 62.77054688 7.53515625 63.71484375 C7 66 7 66 6 67 C4.02 67 2.04 67 0 67 C0 44.89 0 22.78 0 0 Z " fill="#090909" transform="translate(300,654)"/>
<path d="M0 0 C2.64 0 5.28 0 8 0 C8 22.11 8 44.22 8 67 C6.02 67 4.04 67 2 67 C1.34 63.04 0.68 59.08 0 55 C-0.7734375 56.36125 -0.7734375 56.36125 -1.5625 57.75 C-3.99533613 61.37791353 -7.0989964 63.18651692 -11 65 C-12.155 65.5775 -13.31 66.155 -14.5 66.75 C-23.336545 69.86170165 -33.61817061 69.04694936 -41.98828125 65.0625 C-42.65214844 64.711875 -43.31601562 64.36125 -44 64 C-44.928125 63.566875 -45.85625 63.13375 -46.8125 62.6875 C-51.34223663 59.19313174 -54.22201998 54.39715712 -56 49 C-56.83820174 41.38795865 -56.86154075 34.21348608 -52 28 C-46.22965761 21.68070911 -39.98833429 18.02270433 -31.34375 17.6015625 C-29.72916685 17.59371201 -28.11443378 17.60167752 -26.5 17.625 C-25.69691406 17.61339844 -24.89382813 17.60179687 -24.06640625 17.58984375 C-16.89832021 17.62469668 -10.46439246 19.09275894 -5.0625 24.0625 C-4.49660156 24.56910156 -3.93070313 25.07570313 -3.34765625 25.59765625 C-2 27 -2 27 -1 29 C-0.67 19.43 -0.34 9.86 0 0 Z " fill="#070707" transform="translate(611,654)"/>
<path d="M0 0 C0.97259766 0.50853516 0.97259766 0.50853516 1.96484375 1.02734375 C7.40061905 4.25663098 10.13617211 9.0538942 12 15 C12.94294842 21.42693794 12.77078584 27.51997226 9.375 33.19140625 C3.78071199 40.54980212 -2.94055984 44.29182273 -12 46 C-23.94637168 47.21207504 -35.58467145 46.56985105 -45.2421875 38.75 C-50.269828 33.74470457 -53.10958096 28.03235497 -53.375 20.9375 C-53.27588017 14.68469077 -51.80506164 9.99414341 -48 5 C-36.08868516 -5.8650507 -14.081231 -8.61942019 0 0 Z " fill="#FBFBFB" transform="translate(160,676)"/>
<path d="M0 0 C0.80373047 -0.020625 1.60746094 -0.04125 2.43554688 -0.0625 C10.80509783 -0.11636678 18.06888811 1.98519509 24.6875 7.25 C29.77246726 12.49034126 31.98676962 16.54065858 32.125 23.875 C31.99739333 30.6948674 30.95708885 35.83320854 26.6875 41.25 C17.69024106 49.59194677 6.59315846 50.9901966 -5.17578125 50.6015625 C-13.24836284 50.08931012 -21.52943722 47.06310466 -27.3125 41.25 C-32.58675104 35.08999687 -33.08994963 28.69933227 -32.7890625 20.78125 C-31.84087852 13.75536213 -28.70281886 10.14552542 -23.25 5.875 C-15.81198999 0.6021137 -8.91991905 0.05641056 0 0 Z " fill="#FCFCFC" transform="translate(964.3125,671.75)"/>
<path d="M0 0 C4.30482029 2.82528425 8.3585374 6.45715503 9.70825195 11.56542969 C10.23307684 15.04033866 10.2483783 18.37579708 10.234375 21.890625 C10.23296005 22.5938237 10.2315451 23.2970224 10.23008728 24.02153015 C10.22451984 26.25267919 10.2119735 28.48372539 10.19921875 30.71484375 C10.19419954 32.2337225 10.18963737 33.75260284 10.18554688 35.27148438 C10.17456111 38.98180387 10.15731909 42.69206376 10.13671875 46.40234375 C8.15671875 46.40234375 6.17671875 46.40234375 4.13671875 46.40234375 C3.64171875 38.97734375 3.64171875 38.97734375 3.13671875 31.40234375 C2.47671875 31.40234375 1.81671875 31.40234375 1.13671875 31.40234375 C0.85828125 32.45421875 0.85828125 32.45421875 0.57421875 33.52734375 C-2.62774136 39.93126398 -7.85715297 42.67194849 -14.36328125 45.27734375 C-24.25748984 48.53326543 -34.57850954 49.33211598 -44.12890625 44.66796875 C-47.1656937 42.45193467 -48.67717196 40.52738279 -49.296875 36.78125 C-49.30729024 29.27186136 -49.30729024 29.27186136 -47.36328125 25.46484375 C-39.64617084 19.09822766 -30.41658465 17.23326743 -20.67578125 16.27734375 C-19.8458667 16.19242676 -19.01595215 16.10750977 -18.16088867 16.02001953 C-11.7180533 15.39867691 -5.33599892 15.16979102 1.13671875 15.40234375 C-0.79876265 10.81830885 -2.28353044 8.47413578 -6.86328125 6.40234375 C-15.58315337 4.22997143 -26.84553788 3.80023096 -34.86328125 8.40234375 C-35.85328125 9.73265625 -35.85328125 9.73265625 -36.86328125 11.08984375 C-38.86328125 13.40234375 -38.86328125 13.40234375 -41.09765625 13.72265625 C-43.37309269 13.71558968 -45.59890666 13.62007208 -47.86328125 13.40234375 C-47.44444334 8.65551415 -45.35674895 5.51144458 -41.86328125 2.40234375 C-30.41841121 -4.64751772 -12.28963011 -5.56100815 0 0 Z " fill="#080808" transform="translate(885.86328125,674.59765625)"/>
<path d="M0 0 C1.49950195 -0.04350586 1.49950195 -0.04350586 3.02929688 -0.08789062 C11.34673548 -0.15814839 18.25432561 1.41297973 24.875 6.625 C29.19453377 12.25348339 30.38849656 17.21654994 30.23046875 24.21484375 C30.22622391 24.9374086 30.22197906 25.65997345 30.21760559 26.4044342 C30.20096418 28.68668693 30.16334248 30.96801933 30.125 33.25 C30.10993423 34.80792985 30.09624916 36.3658737 30.08398438 37.92382812 C30.05110882 41.72040057 29.9994309 45.51629487 29.9375 49.3125 C27.9575 49.3125 25.9775 49.3125 23.9375 49.3125 C23.2775 44.6925 22.6175 40.0725 21.9375 35.3125 C20.98875 36.529375 20.04 37.74625 19.0625 39 C12.49971959 46.49085037 3.38274516 49.82078529 -6.390625 50.56640625 C-15.27008926 50.85923965 -20.87138642 49.97972439 -27.5625 44.125 C-29.64309177 40.22389044 -29.88650546 36.64780802 -29.0625 32.3125 C-26.04326589 25.79055966 -20.51708859 23.74958722 -14.0625 21.3125 C-2.77219587 18.49689329 9.36240011 18.72009728 20.9375 18.3125 C18.86787834 13.77549156 17.37293756 11.09839273 12.640625 9.00390625 C4.47847321 6.91618823 -5.54325131 7.2443539 -13.390625 10.3125 C-15.3478236 11.33862906 -15.3478236 11.33862906 -17.0625 14 C-19.0625 16.3125 -19.0625 16.3125 -21.296875 16.6328125 C-23.57231144 16.62574593 -25.79812541 16.53022833 -28.0625 16.3125 C-26.60739135 10.62434799 -24.2192039 7.37996761 -19.28515625 4.1484375 C-12.64669883 0.24676485 -7.50138341 0.0706345 0 0 Z " fill="#070707" transform="translate(404.0625,671.6875)"/>
<path d="M0 0 C6.25360974 6.71119095 6.5625 11.05391365 6.5625 20.75 C-11.2575 20.75 -29.0775 20.75 -47.4375 20.75 C-44.29363439 29.36636398 -44.29363439 29.36636398 -37.34765625 33.82421875 C-28.91709278 36.50615639 -17.24799169 36.27940012 -9.3125 32.375 C-6.28903671 30.60881202 -6.28903671 30.60881202 -4.4375 27.75 C-1.4675 27.75 1.5025 27.75 4.5625 27.75 C3.24845878 33.00616486 0.58721696 36.14213653 -3.5625 39.4375 C-14.69488583 44.51967614 -27.852593 46.0362486 -39.5625 42 C-41.2045851 41.28818434 -42.83285779 40.5426212 -44.4375 39.75 C-45.530625 39.21375 -46.62375 38.6775 -47.75 38.125 C-52.90488826 33.56951735 -55.964889 28.93090668 -56.98828125 22.04296875 C-57.2170875 15.48603537 -57.17947396 9.7205757 -53.04296875 4.390625 C-39.8645269 -9.07639586 -15.47333493 -11.24294041 0 0 Z " fill="#060606" transform="translate(688.4375,678.25)"/>
<path d="M0 0 C0.33 0.66 0.66 1.32 1 2 C1.74161377 2.02505615 2.48322754 2.0501123 3.24731445 2.07592773 C6.60255328 2.19186132 9.95750944 2.31459985 13.3125 2.4375 C14.47974609 2.47681641 15.64699219 2.51613281 16.84960938 2.55664062 C18.52700195 2.61948242 18.52700195 2.61948242 20.23828125 2.68359375 C21.26993408 2.72025146 22.30158691 2.75690918 23.36450195 2.79467773 C26 3 26 3 29 4 C30.41532962 4.13544054 31.83546281 4.2239608 33.25610352 4.28125 C34.11031387 4.31798828 34.96452423 4.35472656 35.84461975 4.39257812 C37.22284157 4.44575195 37.22284157 4.44575195 38.62890625 4.5 C39.57434799 4.54060547 40.51978973 4.58121094 41.49388123 4.62304688 C45.54310371 4.79687539 49.59271779 4.96063983 53.64233398 5.125 C56.59635844 5.24633658 59.5501203 5.37301031 62.50390625 5.5 C63.88516441 5.55317383 63.88516441 5.55317383 65.29432678 5.60742188 C66.14538498 5.64416016 66.99644318 5.68089844 67.87329102 5.71875 C68.62369156 5.74904297 69.3740921 5.77933594 70.14723206 5.81054688 C72 6 72 6 74 7 C76.96249605 7.20329755 79.90878983 7.35318281 82.875 7.46484375 C84.68230373 7.54334261 86.48959505 7.62212741 88.296875 7.70117188 C91.15416755 7.82104623 94.01151285 7.93794966 96.86914062 8.04956055 C99.62151566 8.15886834 102.37318569 8.27982996 105.125 8.40234375 C106.41253174 8.44777565 106.41253174 8.44777565 107.72607422 8.49412537 C113.7732747 8.7732747 113.7732747 8.7732747 116 11 C113.11545625 13.88454375 109.64951539 14.27646374 105.79296875 15.20703125 C104.96433319 15.4127626 104.13569763 15.61849396 103.2819519 15.83045959 C100.58544884 16.49803373 97.88658043 17.15543154 95.1875 17.8125 C93.34093547 18.26721741 91.49449982 18.72245853 89.64819336 19.17822266 C84.43464612 20.46256532 79.21806623 21.73415475 74 23 C72.78795898 23.29406738 71.57591797 23.58813477 70.32714844 23.89111328 C65.29355485 25.10725654 60.25576168 26.30391022 55.21289062 27.48095703 C52.82254188 28.04162356 50.43460091 28.61186501 48.046875 29.18359375 C46.4687559 29.55992059 44.89063116 29.93622376 43.3125 30.3125 C42.59779541 30.48442871 41.88309082 30.65635742 41.14672852 30.83349609 C36.22656862 32 36.22656862 32 34 32 C34 32.66 34 33.32 34 34 C30.39280757 33.42919153 28.88115639 32.16004929 26.4375 29.5 C23.31752067 26.24663866 20.08790559 23.37196187 16.5625 20.5625 C12.05414191 16.94955192 7.96922721 13.11369866 3.97265625 8.9453125 C2.08855493 7.08732743 0.15342663 5.53196793 -2 4 C-1.34 2.68 -0.68 1.36 0 0 Z " fill="#5EAF32" transform="translate(359,391)"/>
<path d="M0 0 C5.37071892 5.25136962 8.34164762 10.21636194 8.8125 17.75 C5.8425 17.75 2.8725 17.75 -0.1875 17.75 C-0.744375 16.533125 -1.30125 15.31625 -1.875 14.0625 C-5.86405569 6.23622119 -11.08488463 3.4376968 -19.1875 0.75 C-28.15780079 -2.15721902 -40.72026621 -1.18961572 -49.1875 2.75 C-54.27874138 5.5183625 -58.90803501 8.19380408 -61.1875 13.75 C-63.23303836 22.15289498 -63.72335364 32.05909666 -59.56640625 39.8515625 C-55.25810993 45.78309794 -49.40089369 48.64050746 -42.37890625 50.28125 C-29.70125947 52.14332786 -17.77575794 51.42648701 -7.1875 43.75 C-6.5275 43.75 -5.8675 43.75 -5.1875 43.75 C-3.32198574 40.16247258 -1.76214072 36.47187807 -0.1875 32.75 C2.7825 32.75 5.7525 32.75 8.8125 32.75 C8.49882245 40.12142232 5.23968045 45.36771711 0.0234375 50.515625 C-11.75931609 60.11638719 -26.69307424 60.79961607 -41.1875 59.75 C-51.99930772 57.85033499 -60.76186273 53.07991014 -67.8984375 44.75390625 C-72.0205764 38.34585396 -72.74099875 32.93401269 -72.6875 25.4375 C-72.68105469 24.50341309 -72.67460938 23.56932617 -72.66796875 22.60693359 C-72.44989635 14.40769833 -70.96480462 8.87362466 -65.35546875 2.75 C-48.01496237 -13.66704746 -18.95436628 -13.37955267 0 0 Z " fill="#080808" transform="translate(817.1875,662.25)"/>
<path d="M0 0 C1.98 0 3.96 0 6 0 C6.13277344 0.71027344 6.26554688 1.42054688 6.40234375 2.15234375 C6.57894531 3.07144531 6.75554687 3.99054687 6.9375 4.9375 C7.19853516 6.31228516 7.19853516 6.31228516 7.46484375 7.71484375 C7.77714988 9.95289844 7.77714988 9.95289844 9 11 C9.43570313 10.45730469 9.87140625 9.91460938 10.3203125 9.35546875 C10.91585937 8.64003906 11.51140625 7.92460938 12.125 7.1875 C12.70507812 6.47980469 13.28515625 5.77210938 13.8828125 5.04296875 C18.87236132 0.22833032 23.75306529 -0.53047797 30.375 -0.4375 C31.50772339 -0.42505249 31.50772339 -0.42505249 32.66333008 -0.41235352 C39.37389833 -0.20816622 43.92001398 0.94045637 48.765625 5.75390625 C50.82330046 8.05677201 52.61658895 10.2331779 54 13 C54.49306641 12.22076172 54.49306641 12.22076172 54.99609375 11.42578125 C58.76330671 5.90257743 62.49804991 2.00415223 69 0 C77.75438001 -1.0846984 86.36301672 -0.77126808 94 4 C99.07436562 8.26345005 101.74934963 14.25326727 102.34057617 20.73217773 C102.32486572 22.03614502 102.30915527 23.3401123 102.29296875 24.68359375 C102.28872391 25.38396255 102.28447906 26.08433136 102.28010559 26.80592346 C102.26347156 29.01686 102.2258518 31.22684457 102.1875 33.4375 C102.17243326 34.94725235 102.15874836 36.45701916 102.14648438 37.96679688 C102.11361921 41.64483434 102.06194582 45.32232407 102 49 C99.03 49 96.06 49 93 49 C92.9906543 48.0620459 92.98130859 47.1240918 92.97167969 46.15771484 C92.92750562 42.65713676 92.86582333 39.15775697 92.79248047 35.65771484 C92.76436218 34.14676062 92.74310229 32.63566179 92.72900391 31.12451172 C92.70744551 28.94423897 92.66073684 26.76568781 92.609375 24.5859375 C92.5779541 22.62213135 92.5779541 22.62213135 92.54589844 20.61865234 C91.91422474 16.4314128 90.65776327 14.26223868 88 11 C82.29703519 7.50838889 76.58528491 7.14845454 70 8 C64.6558599 9.65668343 61.02885852 12.22372311 58 17 C56.1506313 20.88636061 55.70787711 24.10632155 55.5859375 28.39453125 C55.54726562 29.59658203 55.50859375 30.79863281 55.46875 32.03710938 C55.4378125 33.28298828 55.406875 34.52886719 55.375 35.8125 C55.33632812 37.07771484 55.29765625 38.34292969 55.2578125 39.64648438 C55.16369343 42.76417851 55.07805639 45.88186914 55 49 C52.36 49 49.72 49 47 49 C46.98541748 48.12263184 46.97083496 47.24526367 46.95581055 46.34130859 C46.8945032 43.06450679 46.82030667 39.78851056 46.73754883 36.51220703 C46.70443709 35.0982551 46.67636284 33.68417536 46.65356445 32.27001953 C46.61976225 30.22894177 46.56744036 28.18902072 46.51171875 26.1484375 C46.48553467 24.92302246 46.45935059 23.69760742 46.43237305 22.43505859 C45.96397218 18.71377107 44.78953544 16.26479357 43 13 C43 12.34 43 11.68 43 11 C35.73925504 7.98813542 28.38348887 6.40655931 20.6640625 8.69140625 C15.93744615 10.79114846 13.42803265 13.33817731 11 18 C9.89958541 21.41607369 9.8016052 24.72281388 9.68359375 28.296875 C9.64169922 29.50214844 9.59980469 30.70742188 9.55664062 31.94921875 C9.51732422 33.20347656 9.47800781 34.45773437 9.4375 35.75 C9.39431641 37.01972656 9.35113281 38.28945313 9.30664062 39.59765625 C9.20060278 42.73166365 9.09853942 45.86574933 9 49 C6.03 49 3.06 49 0 49 C0 32.83 0 16.66 0 0 Z " fill="#070707" transform="translate(184,672)"/>
<path d="M0 0 C0.95197266 -0.020625 1.90394531 -0.04125 2.88476562 -0.0625 C11.14290565 -0.10747285 19.69119782 0.74557271 25.9375 6.6875 C26.5665625 7.26371094 27.195625 7.83992187 27.84375 8.43359375 C30.40625679 11.35409781 31.4375 13.33997479 31.4375 17.25 C28.36583091 17.60442336 25.4949819 17.77825604 22.4375 17.25 C20.375 14.4375 20.375 14.4375 18.4375 11.25 C12.62213026 8.50846855 7.75036052 7.77766625 1.375 7.875 C0.61123047 7.86339844 -0.15253906 7.85179687 -0.93945312 7.83984375 C-6.17912854 7.86673687 -9.946817 8.71978836 -14.5625 11.25 C-15.61417527 13.82732914 -15.61417527 13.82732914 -15.5625 16.25 C-10.63988814 20.14481378 -5.01585664 20.14349799 1 20.75 C23.20241423 23.26028567 23.20241423 23.26028567 32.25 29.5 C34.21779425 32.39990732 33.78904015 34.85177855 33.4375 38.25 C31.58496847 42.67549198 28.72844412 45.24584646 24.4375 47.25 C13.45575192 51.38805 -3.4244352 52.92798722 -14.5625 48.25 C-20.276889 45.24340971 -24.64709206 42.08081588 -27.5625 36.25 C-27.5625 34.93 -27.5625 33.61 -27.5625 32.25 C-24.49052176 31.89554097 -21.62036207 31.7225987 -18.5625 32.25 C-16.4375 35.0625 -16.4375 35.0625 -14.5625 38.25 C-8.67480624 41.60880402 -3.36242536 41.70651198 3.3125 41.625 C4.72595703 41.64240234 4.72595703 41.64240234 6.16796875 41.66015625 C12.44247306 41.63412096 17.62715123 40.618378 23.4375 38.25 C23.4375 36.6 23.4375 34.95 23.4375 33.25 C14.49598033 29.81544457 5.48145525 28.94425317 -3.99023438 27.87695312 C-19.43737038 25.96109142 -19.43737038 25.96109142 -24.5625 19.875 C-25.78668426 16.66151631 -26.05061501 14.66680509 -25.5625 11.25 C-22.83581449 5.5694052 -19.17821492 3.49859222 -13.5625 1.25 C-9.086234 -0.24208867 -4.68957925 0.02469824 0 0 Z " fill="#090909" transform="translate(472.5625,671.75)"/>
<path d="M0 0 C4.23921309 2.67254738 6.3061567 5.2750687 8 10 C8.74514389 15.68554996 8.29828636 20.16251334 5 25 C-1.38446774 31.24259068 -7.30496877 32.36069277 -15.875 32.375 C-16.63941406 32.39949219 -17.40382813 32.42398438 -18.19140625 32.44921875 C-24.4997013 32.48134929 -29.89773337 30.93876029 -34.56567383 26.5168457 C-38.5276599 21.95552022 -39.3628578 18.19111641 -39.27734375 12.34765625 C-38.66606483 7.17330935 -36.17687953 3.94662049 -32.125 0.6875 C-22.33370427 -4.59979969 -10.05681778 -4.99624423 0 0 Z " fill="#FAFAFA" transform="translate(348,682)"/>
<path d="M0 0 C3.71659222 3.53508423 4.45971578 6.57696898 4.6171875 11.66015625 C4.34431295 16.31644116 3.99392393 19.83175957 1.0546875 23.59765625 C-7.4502843 30.33536119 -16.47850466 30.20942504 -26.9453125 29.59765625 C-32.52593803 28.52543319 -36.35950033 26.02718893 -39.9453125 21.59765625 C-42.67426617 17.04940014 -42.61457736 11.74521188 -41.9453125 6.59765625 C-39.21487184 1.13677493 -35.61815788 -2.26496274 -30.0078125 -4.65234375 C-19.64938379 -7.14017597 -8.73072339 -6.29383473 0 0 Z " fill="#FBFBFB" transform="translate(605.9453125,684.40234375)"/>
<path d="M0 0 C0.80373047 -0.020625 1.60746094 -0.04125 2.43554688 -0.0625 C10.80509783 -0.11636678 18.06888811 1.98519509 24.6875 7.25 C29.77246726 12.49034126 31.98676962 16.54065858 32.125 23.875 C31.99739333 30.6948674 30.95708885 35.83320854 26.6875 41.25 C17.69024106 49.59194677 6.59315846 50.9901966 -5.17578125 50.6015625 C-13.24836284 50.08931012 -21.52943722 47.06310466 -27.3125 41.25 C-32.58675104 35.08999687 -33.08994963 28.69933227 -32.7890625 20.78125 C-31.84087852 13.75536213 -28.70281886 10.14552542 -23.25 5.875 C-15.81198999 0.6021137 -8.91991905 0.05641056 0 0 Z M-20.375 13.6875 C-23.87824898 18.08484964 -24.09109006 21.98381361 -23.73828125 27.4765625 C-22.99618458 32.31040318 -21.49006248 35.07243752 -18.0625 38.5 C-10.11011867 43.5606063 0.4596244 43.44164659 9.484375 41.71484375 C13.88712774 40.36299182 17.43645401 38.59956253 20.6875 35.25 C23.35763176 29.70947659 23.67957808 24.28058489 22.6875 18.25 C20.14717359 13.12033767 16.41512267 10.14790706 11.0625 8.25 C0.23796266 5.71274163 -11.97932703 5.62698364 -20.375 13.6875 Z " fill="#090909" transform="translate(964.3125,671.75)"/>
<path d="M0 0 C0.97259766 0.50853516 0.97259766 0.50853516 1.96484375 1.02734375 C7.40061905 4.25663098 10.13617211 9.0538942 12 15 C12.94294842 21.42693794 12.77078584 27.51997226 9.375 33.19140625 C3.78071199 40.54980212 -2.94055984 44.29182273 -12 46 C-23.94637168 47.21207504 -35.58467145 46.56985105 -45.2421875 38.75 C-50.269828 33.74470457 -53.10958096 28.03235497 -53.375 20.9375 C-53.27588017 14.68469077 -51.80506164 9.99414341 -48 5 C-36.08868516 -5.8650507 -14.081231 -8.61942019 0 0 Z M-41.0625 10.0625 C-44.31203462 14.98921377 -44.53150973 19.26166346 -44 25 C-41.99398548 30.79515307 -38.27091377 34.29912484 -32.8515625 37.1171875 C-25.14163303 39.50409717 -14.17771947 39.41671349 -6.6875 36.375 C-1.92612935 33.74642406 1.26333183 30.2100045 3 25 C3.50981092 20.14425994 3.53232283 16.17554625 1.5 11.6875 C-3.9105341 5.87117584 -9.3207472 3.34851578 -17.19921875 2.76171875 C-26.14261832 2.57143365 -34.79012853 2.91698591 -41.0625 10.0625 Z " fill="#090909" transform="translate(160,676)"/>
<path d="M0 0 C5.38989591 -0.0691998 10.77822526 -0.1288329 16.16821289 -0.16479492 C17.99834441 -0.17979997 19.82844046 -0.20021059 21.65844727 -0.22631836 C24.30233558 -0.26306906 26.94574492 -0.27980937 29.58984375 -0.29296875 C30.79978249 -0.31619453 30.79978249 -0.31619453 32.03416443 -0.33988953 C38.18510014 -0.3416761 44.88086661 0.33776074 49.72691345 4.47395325 C51.87358892 7.04716961 51.52942252 9.55250682 51.4140625 12.77734375 C50.73335297 16.43134115 48.94820976 17.88497995 46 20 C40.829412 22.22402384 36.18477595 22.2628351 30.6640625 22.1953125 C29.34503433 22.19106766 29.34503433 22.19106766 27.99935913 22.18673706 C25.20776406 22.17559712 22.4164971 22.15050411 19.625 22.125 C17.72526507 22.1149622 15.82552508 22.10583775 13.92578125 22.09765625 C9.28362795 22.07738484 4.64217859 22.03822471 0 22 C0 14.74 0 7.48 0 0 Z " fill="#F6F6F6" transform="translate(36,662)"/>
<path d="M0 0 C5.9781577 -0.09212914 11.95382536 -0.17167718 17.93212891 -0.21972656 C19.96313857 -0.23976836 21.99409106 -0.26700947 24.02490234 -0.30175781 C26.95424556 -0.35060414 29.882822 -0.37304343 32.8125 -0.390625 C33.71178223 -0.41127014 34.61106445 -0.43191528 35.53759766 -0.45318604 C41.43174144 -0.455256 46.15230845 0.47459257 51 4 C53.36086122 7.54129184 53.57269578 8.82750218 53 13 C50.10092198 17.56824416 48.39554298 19.14024964 43.09300232 20.58703613 C39.19737168 21.35567106 35.30408257 21.24276304 31.34765625 21.1953125 C30.44752304 21.1924826 29.54738983 21.18965271 28.61997986 21.18673706 C25.7673468 21.17561278 22.91503689 21.15052283 20.0625 21.125 C18.11914518 21.11496017 16.17578541 21.10583608 14.23242188 21.09765625 C9.48805898 21.07740716 4.74438784 21.03824406 0 21 C0 14.07 0 7.14 0 0 Z " fill="#FDFDFD" transform="translate(37,692)"/>
<path d="M0 0 C1.18916016 0.01353516 1.18916016 0.01353516 2.40234375 0.02734375 C4.35169281 0.05082988 6.30088575 0.08669863 8.25 0.125 C8.25 3.095 8.25 6.065 8.25 9.125 C7.02023437 9.15078125 5.79046875 9.1765625 4.5234375 9.203125 C2.89059068 9.25943006 1.25777955 9.31677685 -0.375 9.375 C-1.18324219 9.38917969 -1.99148438 9.40335938 -2.82421875 9.41796875 C-8.22714521 9.63759991 -11.53834132 10.44443025 -15.75 14.125 C-19.20979635 18.53407748 -20.26056977 21.47219202 -20.359375 27.0546875 C-20.39160156 28.34375 -20.42382812 29.6328125 -20.45703125 30.9609375 C-20.4717723 32.30728715 -20.48609 33.6536415 -20.5 35 C-20.52818712 36.36982903 -20.55811837 37.73962335 -20.58984375 39.109375 C-20.66037757 42.44797602 -20.71315985 45.78588515 -20.75 49.125 C-23.72 49.125 -26.69 49.125 -29.75 49.125 C-29.75 33.285 -29.75 17.445 -29.75 1.125 C-27.77 1.125 -25.79 1.125 -23.75 1.125 C-23.09 4.755 -22.43 8.385 -21.75 12.125 C-21.193125 11.2175 -20.63625 10.31 -20.0625 9.375 C-14.4820346 1.53218377 -9.12839345 -0.19679787 0 0 Z " fill="#0B0B0B" transform="translate(1038.75,671.875)"/>
<path d="M0 0 C-1.603707 5.74661675 -3.41087968 9.37638117 -8.56640625 12.609375 C-15.85863662 16.68758639 -21.07365191 18.20536275 -29.4375 18.3125 C-30.18837891 18.34150391 -30.93925781 18.37050781 -31.71289062 18.40039062 C-35.65578859 18.44547213 -37.56088693 18.27308596 -40.99609375 16.13671875 C-43 14 -43 14 -43.625 11.5 C-43 9 -43 9 -41.1875 6.875 C-29.61060333 0.06506078 -13.15109936 -0.41749522 0 0 Z " fill="#F5F5F6" transform="translate(888,696)"/>
<path d="M0 0 C-0.32129349 5.30134265 -3.21007449 8.56205461 -7 12 C-9.56134474 13.64985228 -12.16258808 14.89945971 -15 16 C-15.91652344 16.35964844 -16.83304687 16.71929688 -17.77734375 17.08984375 C-21.49316824 18.13928267 -24.70497269 18.26557024 -28.5625 18.25 C-29.84253906 18.25515625 -31.12257813 18.2603125 -32.44140625 18.265625 C-36.93695631 17.93006254 -39.79523769 17.20476231 -43 14 C-42.875 11.0625 -42.875 11.0625 -42 8 C-35.41219517 2.07434096 -25.77269413 1.48316266 -17.3125 0.8125 C-16.41466797 0.73064453 -15.51683594 0.64878906 -14.59179688 0.56445312 C-9.70920356 0.13879114 -4.90021378 -0.0871447 0 0 Z " fill="#F6F6F6" transform="translate(426,696)"/>
<path d="M0 0 C2.64 0 5.28 0 8 0 C8 22.11 8 44.22 8 67 C5.36 67 2.72 67 0 67 C0 44.89 0 22.78 0 0 Z " fill="#000000" transform="translate(911,654)"/>
<path d="M0 0 C4.28358481 3.13186625 4.22280266 4.29775344 5.15625 9.8984375 C-9.69375 9.8984375 -24.54375 9.8984375 -39.84375 9.8984375 C-38.60756314 3.71750321 -36.37947158 1.6301498 -31.28125 -1.8515625 C-21.95276868 -6.63539907 -8.84842268 -5.28655762 0 0 Z " fill="#F4F4F4" transform="translate(680.84375,683.1015625)"/>
<path d="M0 0 C0.680625 0.309375 1.36125 0.61875 2.0625 0.9375 C1.4025 2.9175 0.7425 4.8975 0.0625 6.9375 C-0.9275 6.6075 -1.9175 6.2775 -2.9375 5.9375 C-5.66081488 5.70561378 -8.18789269 5.80656632 -10.9375 5.9375 C-11.5975 6.5975 -12.2575 7.2575 -12.9375 7.9375 C-13.9275 5.6275 -14.9175 3.3175 -15.9375 0.9375 C-10.11886444 -2.61044851 -6.29361826 -2.27641512 0 0 Z " fill="#F0F0F1" transform="translate(375.9375,681.0625)"/>
<path d="M0 0 C6.6 0 13.2 0 20 0 C20.33 0.66 20.66 1.32 21 2 C17.86149936 2.92553743 15.06319222 3.11664647 11.796875 3.09765625 C10.8171875 3.09443359 9.8375 3.09121094 8.828125 3.08789062 C7.81234375 3.07951172 6.7965625 3.07113281 5.75 3.0625 C4.203125 3.05573242 4.203125 3.05573242 2.625 3.04882812 C0.08327427 3.03706088 -2.45833319 3.02062011 -5 3 C-5 2.67 -5 2.34 -5 2 C-3.35 1.67 -1.7 1.34 0 1 C0 0.67 0 0.34 0 0 Z " fill="#5A9E54" transform="translate(791,384)"/>
</svg>
